<svg aria-roledescription="er" role="graphics-document document" viewBox="-132.4964141845703 0 436.51629638671875 753.5" style="max-width: 436.516px; background-color: white;" xmlns:xlink="http://www.w3.org/1999/xlink" xmlns="http://www.w3.org/2000/svg" width="100%" id="my-svg"><style>#my-svg{font-family:"trebuchet ms",verdana,arial,sans-serif;font-size:16px;fill:#000000;}#my-svg .error-icon{fill:#552222;}#my-svg .error-text{fill:#552222;stroke:#552222;}#my-svg .edge-thickness-normal{stroke-width:2px;}#my-svg .edge-thickness-thick{stroke-width:3.5px;}#my-svg .edge-pattern-solid{stroke-dasharray:0;}#my-svg .edge-pattern-dashed{stroke-dasharray:3;}#my-svg .edge-pattern-dotted{stroke-dasharray:2;}#my-svg .marker{fill:#000000;stroke:#000000;}#my-svg .marker.cross{stroke:#000000;}#my-svg svg{font-family:"trebuchet ms",verdana,arial,sans-serif;font-size:16px;}#my-svg .entityBox{fill:#cde498;stroke:#13540c;}#my-svg .attributeBoxOdd{fill:#ffffff;stroke:#13540c;}#my-svg .attributeBoxEven{fill:#f2f2f2;stroke:#13540c;}#my-svg .relationshipLabelBox{fill:hsl(78.1578947368, 58.4615384615%, 84.5098039216%);opacity:0.7;background-color:hsl(78.1578947368, 58.4615384615%, 84.5098039216%);}#my-svg .relationshipLabelBox rect{opacity:0.5;}#my-svg .relationshipLine{stroke:#000000;}#my-svg .entityTitleText{text-anchor:middle;font-size:18px;fill:#000000;}#my-svg #MD_PARENT_START{fill:#f5f5f5!important;stroke:#000000!important;stroke-width:1;}#my-svg #MD_PARENT_END{fill:#f5f5f5!important;stroke:#000000!important;stroke-width:1;}#my-svg :root{--mermaid-font-family:"trebuchet ms",verdana,arial,sans-serif;}</style><g/><defs><marker orient="auto" markerHeight="240" markerWidth="190" refY="7" refX="0" id="MD_PARENT_START"><path d="M 18,7 L9,13 L1,7 L9,1 Z"/></marker></defs><defs><marker orient="auto" markerHeight="28" markerWidth="20" refY="7" refX="19" id="MD_PARENT_END"><path d="M 18,7 L9,13 L1,7 L9,1 Z"/></marker></defs><defs><marker orient="auto" markerHeight="18" markerWidth="18" refY="9" refX="0" id="ONLY_ONE_START"><path d="M9,0 L9,18 M15,0 L15,18" fill="none" stroke="gray"/></marker></defs><defs><marker orient="auto" markerHeight="18" markerWidth="18" refY="9" refX="18" id="ONLY_ONE_END"><path d="M3,0 L3,18 M9,0 L9,18" fill="none" stroke="gray"/></marker></defs><defs><marker orient="auto" markerHeight="18" markerWidth="30" refY="9" refX="0" id="ZERO_OR_ONE_START"><circle r="6" cy="9" cx="21" fill="white" stroke="gray"/><path d="M9,0 L9,18" fill="none" stroke="gray"/></marker></defs><defs><marker orient="auto" markerHeight="18" markerWidth="30" refY="9" refX="30" id="ZERO_OR_ONE_END"><circle r="6" cy="9" cx="9" fill="white" stroke="gray"/><path d="M21,0 L21,18" fill="none" stroke="gray"/></marker></defs><defs><marker orient="auto" markerHeight="36" markerWidth="45" refY="18" refX="18" id="ONE_OR_MORE_START"><path d="M0,18 Q 18,0 36,18 Q 18,36 0,18 M42,9 L42,27" fill="none" stroke="gray"/></marker></defs><defs><marker orient="auto" markerHeight="36" markerWidth="45" refY="18" refX="27" id="ONE_OR_MORE_END"><path d="M3,9 L3,27 M9,18 Q27,0 45,18 Q27,36 9,18" fill="none" stroke="gray"/></marker></defs><defs><marker orient="auto" markerHeight="36" markerWidth="57" refY="18" refX="18" id="ZERO_OR_MORE_START"><circle r="6" cy="18" cx="48" fill="white" stroke="gray"/><path d="M0,18 Q18,0 36,18 Q18,36 0,18" fill="none" stroke="gray"/></marker></defs><defs><marker orient="auto" markerHeight="36" markerWidth="57" refY="18" refX="39" id="ZERO_OR_MORE_END"><circle r="6" cy="18" cx="9" fill="white" stroke="gray"/><path d="M21,18 Q39,0 57,18 Q39,36 21,18" fill="none" stroke="gray"/></marker></defs><path style="stroke: gray; fill: none;" marker-start="url(#ZERO_OR_MORE_START)" marker-end="url(#ZERO_OR_MORE_END)" d="M68.24780925445104,88.5L63.30221083704254,96.83333333333333C58.356612419634025,105.16666666666667,48.465415584817016,121.83333333333333,47.073477437486694,138.5C45.681539290156365,155.16666666666666,52.788859830312724,171.83333333333334,56.34252010039091,180.16666666666666L59.89618037046908,188.5" class="er relationshipLine"/><path style="stroke: gray; fill: none;" marker-start="url(#ZERO_OR_MORE_START)" marker-end="url(#ZERO_OR_MORE_END)" d="M27.875,81.99968470139368L7.277018229166667,91.41640391782806C-13.320963541666666,100.83312313426245,-54.516927083333336,119.66656156713123,-75.11490885416667,148.62494745023227C-95.712890625,177.58333333333334,-95.712890625,216.66666666666666,-95.712890625,255.75C-95.712890625,294.8333333333333,-95.712890625,333.9166666666667,-76.42740885416667,374.9375629272429C-57.141927083333336,415.9584591878191,-18.570963541666668,458.9169183756381,0.7145182291666666,480.39614796954766L20,501.87537756345716" class="er relationshipLine"/><path style="stroke: gray; fill: none;" marker-start="url(#ZERO_OR_MORE_START)" marker-end="url(#ZERO_OR_MORE_END)" d="M126.39395078410476,423L128.4239954450873,414.6666666666667C130.45404010606984,406.3333333333333,134.51412942803492,389.6666666666667,132.99051381893926,373C131.46689820984363,356.3333333333333,124.35957766968727,339.6666666666667,120.80591739960909,331.3333333333333L117.25225712953092,323" class="er relationshipLine"/><path style="stroke: gray; fill: none;" marker-start="url(#ZERO_OR_ONE_START)" marker-end="url(#ONLY_ONE_END)" d="M157.1484375,501.87537756345716L176.43391927083334,480.39614796954766C195.71940104166666,458.9169183756381,234.29036458333334,415.9584591878191,253.57584635416666,374.9375629272429C272.861328125,333.9166666666667,272.861328125,294.8333333333333,272.861328125,255.75C272.861328125,216.66666666666666,272.861328125,177.58333333333334,252.26334635416666,148.62494745023227C231.66536458333334,119.66656156713123,190.46940104166666,100.83312313426245,169.87141927083334,91.41640391782806L149.2734375,81.99968470139368" class="er relationshipLine"/><path style="stroke: gray; fill: none;" marker-start="url(#ZERO_OR_ONE_START)" marker-end="url(#ONLY_ONE_END)" d="M117.25225712953092,188.5L120.8059173996091,180.16666666666666C124.35957766968727,171.83333333333334,131.46689820984363,155.16666666666666,130.07496006251333,138.5C128.683021915183,121.83333333333333,118.79182508036597,105.16666666666667,113.84622666295746,96.83333333333333L108.90062824554896,88.5" class="er relationshipLine"/><path style="stroke: gray; fill: none;" marker-start="url(#ZERO_OR_ONE_START)" marker-end="url(#ZERO_OR_ONE_END)" d="M59.89618037046908,323L56.34252010039091,331.3333333333333C52.788859830312724,339.6666666666667,45.681539290156365,356.3333333333333,44.15792368106073,373C42.63430807196508,389.6666666666667,46.69439739393016,406.3333333333333,48.72444205491271,414.6666666666667L50.75448671589525,423" class="er relationshipLine"/><g transform="translate(27.875,20 )" id="entity-User-818c511a-4a32-5484-ba70-875d765a9175"><rect height="68.5" width="121.3984375" y="0" x="0" class="er entityBox"/><text style="dominant-baseline: middle; text-anchor: middle; font-size: 12px;" transform="translate(60.69921875,12)" y="0" x="0" id="text-entity-User-818c511a-4a32-5484-ba70-875d765a9175" class="er entityLabel">User</text><rect height="22.5" width="53.6640625" y="24" x="0" class="er attributeBoxOdd"/><text style="dominant-baseline: middle; font-size: 10.2px;" transform="translate(5,35.25)" y="0" x="0" id="text-entity-User-818c511a-4a32-5484-ba70-875d765a9175-attr-1-type" class="er entityLabel">String</text><rect height="22.5" width="45.234375" y="24" x="53.6640625" class="er attributeBoxOdd"/><text style="dominant-baseline: middle; font-size: 10.2px;" transform="translate(58.6640625,35.25)" y="0" x="0" id="text-entity-User-818c511a-4a32-5484-ba70-875d765a9175-attr-1-name" class="er entityLabel">id</text><rect height="22.5" width="22.5" y="24" x="98.8984375" class="er attributeBoxOdd"/><text style="dominant-baseline: middle; font-size: 10.2px;" transform="translate(103.8984375,35.25)" y="0" x="0" id="text-entity-User-818c511a-4a32-5484-ba70-875d765a9175-attr-1-comment" class="er entityLabel">🗝️</text><rect height="22" width="53.6640625" y="46.5" x="0" class="er attributeBoxEven"/><text style="dominant-baseline: middle; font-size: 10.2px;" transform="translate(5,57.5)" y="0" x="0" id="text-entity-User-818c511a-4a32-5484-ba70-875d765a9175-attr-2-type" class="er entityLabel">DateTime</text><rect height="22" width="45.234375" y="46.5" x="53.6640625" class="er attributeBoxEven"/><text style="dominant-baseline: middle; font-size: 10.2px;" transform="translate(58.6640625,57.5)" y="0" x="0" id="text-entity-User-818c511a-4a32-5484-ba70-875d765a9175-attr-2-name" class="er entityLabel">created</text><rect height="22" width="22.5" y="46.5" x="98.8984375" class="er attributeBoxEven"/><text style="dominant-baseline: middle; font-size: 10.2px;" transform="translate(103.8984375,57.5)" y="0" x="0" id="text-entity-User-818c511a-4a32-5484-ba70-875d765a9175-attr-2-comment" class="er entityLabel"/></g><g transform="translate(20,423 )" id="entity-Place-18cedc50-4c85-52d4-b2dd-111465382dcf"><rect height="310.5" width="137.1484375" y="0" x="0" class="er entityBox"/><text style="dominant-baseline: middle; text-anchor: middle; font-size: 12px;" transform="translate(68.57421875,12)" y="0" x="0" id="text-entity-Place-18cedc50-4c85-52d4-b2dd-111465382dcf" class="er entityLabel">Place</text><rect height="22.5" width="53.6640625" y="24" x="0" class="er attributeBoxOdd"/><text style="dominant-baseline: middle; font-size: 10.2px;" transform="translate(5,35.25)" y="0" x="0" id="text-entity-Place-18cedc50-4c85-52d4-b2dd-111465382dcf-attr-1-type" class="er entityLabel">Int</text><rect height="22.5" width="60.984375" y="24" x="53.6640625" class="er attributeBoxOdd"/><text style="dominant-baseline: middle; font-size: 10.2px;" transform="translate(58.6640625,35.25)" y="0" x="0" id="text-entity-Place-18cedc50-4c85-52d4-b2dd-111465382dcf-attr-1-name" class="er entityLabel">id</text><rect height="22.5" width="22.5" y="24" x="114.6484375" class="er attributeBoxOdd"/><text style="dominant-baseline: middle; font-size: 10.2px;" transform="translate(119.6484375,35.25)" y="0" x="0" id="text-entity-Place-18cedc50-4c85-52d4-b2dd-111465382dcf-attr-1-comment" class="er entityLabel">🗝️</text><rect height="22" width="53.6640625" y="46.5" x="0" class="er attributeBoxEven"/><text style="dominant-baseline: middle; font-size: 10.2px;" transform="translate(5,57.5)" y="0" x="0" id="text-entity-Place-18cedc50-4c85-52d4-b2dd-111465382dcf-attr-2-type" class="er entityLabel">String</text><rect height="22" width="60.984375" y="46.5" x="53.6640625" class="er attributeBoxEven"/><text style="dominant-baseline: middle; font-size: 10.2px;" transform="translate(58.6640625,57.5)" y="0" x="0" id="text-entity-Place-18cedc50-4c85-52d4-b2dd-111465382dcf-attr-2-name" class="er entityLabel">title</text><rect height="22" width="22.5" y="46.5" x="114.6484375" class="er attributeBoxEven"/><text style="dominant-baseline: middle; font-size: 10.2px;" transform="translate(119.6484375,57.5)" y="0" x="0" id="text-entity-Place-18cedc50-4c85-52d4-b2dd-111465382dcf-attr-2-comment" class="er entityLabel"/><rect height="22" width="53.6640625" y="68.5" x="0" class="er attributeBoxOdd"/><text style="dominant-baseline: middle; font-size: 10.2px;" transform="translate(5,79.5)" y="0" x="0" id="text-entity-Place-18cedc50-4c85-52d4-b2dd-111465382dcf-attr-3-type" class="er entityLabel">String</text><rect height="22" width="60.984375" y="68.5" x="53.6640625" class="er attributeBoxOdd"/><text style="dominant-baseline: middle; font-size: 10.2px;" transform="translate(58.6640625,79.5)" y="0" x="0" id="text-entity-Place-18cedc50-4c85-52d4-b2dd-111465382dcf-attr-3-name" class="er entityLabel">description</text><rect height="22" width="22.5" y="68.5" x="114.6484375" class="er attributeBoxOdd"/><text style="dominant-baseline: middle; font-size: 10.2px;" transform="translate(119.6484375,79.5)" y="0" x="0" id="text-entity-Place-18cedc50-4c85-52d4-b2dd-111465382dcf-attr-3-comment" class="er entityLabel"/><rect height="22" width="53.6640625" y="90.5" x="0" class="er attributeBoxEven"/><text style="dominant-baseline: middle; font-size: 10.2px;" transform="translate(5,101.5)" y="0" x="0" id="text-entity-Place-18cedc50-4c85-52d4-b2dd-111465382dcf-attr-4-type" class="er entityLabel">Int</text><rect height="22" width="60.984375" y="90.5" x="53.6640625" class="er attributeBoxEven"/><text style="dominant-baseline: middle; font-size: 10.2px;" transform="translate(58.6640625,101.5)" y="0" x="0" id="text-entity-Place-18cedc50-4c85-52d4-b2dd-111465382dcf-attr-4-name" class="er entityLabel">iso</text><rect height="22" width="22.5" y="90.5" x="114.6484375" class="er attributeBoxEven"/><text style="dominant-baseline: middle; font-size: 10.2px;" transform="translate(119.6484375,101.5)" y="0" x="0" id="text-entity-Place-18cedc50-4c85-52d4-b2dd-111465382dcf-attr-4-comment" class="er entityLabel"/><rect height="22" width="53.6640625" y="112.5" x="0" class="er attributeBoxOdd"/><text style="dominant-baseline: middle; font-size: 10.2px;" transform="translate(5,123.5)" y="0" x="0" id="text-entity-Place-18cedc50-4c85-52d4-b2dd-111465382dcf-attr-5-type" class="er entityLabel">String</text><rect height="22" width="60.984375" y="112.5" x="53.6640625" class="er attributeBoxOdd"/><text style="dominant-baseline: middle; font-size: 10.2px;" transform="translate(58.6640625,123.5)" y="0" x="0" id="text-entity-Place-18cedc50-4c85-52d4-b2dd-111465382dcf-attr-5-name" class="er entityLabel">website</text><rect height="22" width="22.5" y="112.5" x="114.6484375" class="er attributeBoxOdd"/><text style="dominant-baseline: middle; font-size: 10.2px;" transform="translate(119.6484375,123.5)" y="0" x="0" id="text-entity-Place-18cedc50-4c85-52d4-b2dd-111465382dcf-attr-5-comment" class="er entityLabel"/><rect height="22" width="53.6640625" y="134.5" x="0" class="er attributeBoxEven"/><text style="dominant-baseline: middle; font-size: 10.2px;" transform="translate(5,145.5)" y="0" x="0" id="text-entity-Place-18cedc50-4c85-52d4-b2dd-111465382dcf-attr-6-type" class="er entityLabel">String</text><rect height="22" width="60.984375" y="134.5" x="53.6640625" class="er attributeBoxEven"/><text style="dominant-baseline: middle; font-size: 10.2px;" transform="translate(58.6640625,145.5)" y="0" x="0" id="text-entity-Place-18cedc50-4c85-52d4-b2dd-111465382dcf-attr-6-name" class="er entityLabel">category</text><rect height="22" width="22.5" y="134.5" x="114.6484375" class="er attributeBoxEven"/><text style="dominant-baseline: middle; font-size: 10.2px;" transform="translate(119.6484375,145.5)" y="0" x="0" id="text-entity-Place-18cedc50-4c85-52d4-b2dd-111465382dcf-attr-6-comment" class="er entityLabel"/><rect height="22" width="53.6640625" y="156.5" x="0" class="er attributeBoxOdd"/><text style="dominant-baseline: middle; font-size: 10.2px;" transform="translate(5,167.5)" y="0" x="0" id="text-entity-Place-18cedc50-4c85-52d4-b2dd-111465382dcf-attr-7-type" class="er entityLabel">Boolean</text><rect height="22" width="60.984375" y="156.5" x="53.6640625" class="er attributeBoxOdd"/><text style="dominant-baseline: middle; font-size: 10.2px;" transform="translate(58.6640625,167.5)" y="0" x="0" id="text-entity-Place-18cedc50-4c85-52d4-b2dd-111465382dcf-attr-7-name" class="er entityLabel">restroom</text><rect height="22" width="22.5" y="156.5" x="114.6484375" class="er attributeBoxOdd"/><text style="dominant-baseline: middle; font-size: 10.2px;" transform="translate(119.6484375,167.5)" y="0" x="0" id="text-entity-Place-18cedc50-4c85-52d4-b2dd-111465382dcf-attr-7-comment" class="er entityLabel"/><rect height="22" width="53.6640625" y="178.5" x="0" class="er attributeBoxEven"/><text style="dominant-baseline: middle; font-size: 10.2px;" transform="translate(5,189.5)" y="0" x="0" id="text-entity-Place-18cedc50-4c85-52d4-b2dd-111465382dcf-attr-8-type" class="er entityLabel">Boolean</text><rect height="22" width="60.984375" y="178.5" x="53.6640625" class="er attributeBoxEven"/><text style="dominant-baseline: middle; font-size: 10.2px;" transform="translate(58.6640625,189.5)" y="0" x="0" id="text-entity-Place-18cedc50-4c85-52d4-b2dd-111465382dcf-attr-8-name" class="er entityLabel">parking</text><rect height="22" width="22.5" y="178.5" x="114.6484375" class="er attributeBoxEven"/><text style="dominant-baseline: middle; font-size: 10.2px;" transform="translate(119.6484375,189.5)" y="0" x="0" id="text-entity-Place-18cedc50-4c85-52d4-b2dd-111465382dcf-attr-8-comment" class="er entityLabel"/><rect height="22" width="53.6640625" y="200.5" x="0" class="er attributeBoxOdd"/><text style="dominant-baseline: middle; font-size: 10.2px;" transform="translate(5,211.5)" y="0" x="0" id="text-entity-Place-18cedc50-4c85-52d4-b2dd-111465382dcf-attr-9-type" class="er entityLabel">Boolean</text><rect height="22" width="60.984375" y="200.5" x="53.6640625" class="er attributeBoxOdd"/><text style="dominant-baseline: middle; font-size: 10.2px;" transform="translate(58.6640625,211.5)" y="0" x="0" id="text-entity-Place-18cedc50-4c85-52d4-b2dd-111465382dcf-attr-9-name" class="er entityLabel">cash</text><rect height="22" width="22.5" y="200.5" x="114.6484375" class="er attributeBoxOdd"/><text style="dominant-baseline: middle; font-size: 10.2px;" transform="translate(119.6484375,211.5)" y="0" x="0" id="text-entity-Place-18cedc50-4c85-52d4-b2dd-111465382dcf-attr-9-comment" class="er entityLabel"/><rect height="22" width="53.6640625" y="222.5" x="0" class="er attributeBoxEven"/><text style="dominant-baseline: middle; font-size: 10.2px;" transform="translate(5,233.5)" y="0" x="0" id="text-entity-Place-18cedc50-4c85-52d4-b2dd-111465382dcf-attr-10-type" class="er entityLabel">Boolean</text><rect height="22" width="60.984375" y="222.5" x="53.6640625" class="er attributeBoxEven"/><text style="dominant-baseline: middle; font-size: 10.2px;" transform="translate(58.6640625,233.5)" y="0" x="0" id="text-entity-Place-18cedc50-4c85-52d4-b2dd-111465382dcf-attr-10-name" class="er entityLabel">credit</text><rect height="22" width="22.5" y="222.5" x="114.6484375" class="er attributeBoxEven"/><text style="dominant-baseline: middle; font-size: 10.2px;" transform="translate(119.6484375,233.5)" y="0" x="0" id="text-entity-Place-18cedc50-4c85-52d4-b2dd-111465382dcf-attr-10-comment" class="er entityLabel"/><rect height="22" width="53.6640625" y="244.5" x="0" class="er attributeBoxOdd"/><text style="dominant-baseline: middle; font-size: 10.2px;" transform="translate(5,255.5)" y="0" x="0" id="text-entity-Place-18cedc50-4c85-52d4-b2dd-111465382dcf-attr-11-type" class="er entityLabel">Boolean</text><rect height="22" width="60.984375" y="244.5" x="53.6640625" class="er attributeBoxOdd"/><text style="dominant-baseline: middle; font-size: 10.2px;" transform="translate(58.6640625,255.5)" y="0" x="0" id="text-entity-Place-18cedc50-4c85-52d4-b2dd-111465382dcf-attr-11-name" class="er entityLabel">digital</text><rect height="22" width="22.5" y="244.5" x="114.6484375" class="er attributeBoxOdd"/><text style="dominant-baseline: middle; font-size: 10.2px;" transform="translate(119.6484375,255.5)" y="0" x="0" id="text-entity-Place-18cedc50-4c85-52d4-b2dd-111465382dcf-attr-11-comment" class="er entityLabel"/><rect height="22" width="53.6640625" y="266.5" x="0" class="er attributeBoxEven"/><text style="dominant-baseline: middle; font-size: 10.2px;" transform="translate(5,277.5)" y="0" x="0" id="text-entity-Place-18cedc50-4c85-52d4-b2dd-111465382dcf-attr-12-type" class="er entityLabel">DateTime</text><rect height="22" width="60.984375" y="266.5" x="53.6640625" class="er attributeBoxEven"/><text style="dominant-baseline: middle; font-size: 10.2px;" transform="translate(58.6640625,277.5)" y="0" x="0" id="text-entity-Place-18cedc50-4c85-52d4-b2dd-111465382dcf-attr-12-name" class="er entityLabel">created</text><rect height="22" width="22.5" y="266.5" x="114.6484375" class="er attributeBoxEven"/><text style="dominant-baseline: middle; font-size: 10.2px;" transform="translate(119.6484375,277.5)" y="0" x="0" id="text-entity-Place-18cedc50-4c85-52d4-b2dd-111465382dcf-attr-12-comment" class="er entityLabel"/><rect height="22" width="53.6640625" y="288.5" x="0" class="er attributeBoxOdd"/><text style="dominant-baseline: middle; font-size: 10.2px;" transform="translate(5,299.5)" y="0" x="0" id="text-entity-Place-18cedc50-4c85-52d4-b2dd-111465382dcf-attr-13-type" class="er entityLabel">DateTime</text><rect height="22" width="60.984375" y="288.5" x="53.6640625" class="er attributeBoxOdd"/><text style="dominant-baseline: middle; font-size: 10.2px;" transform="translate(58.6640625,299.5)" y="0" x="0" id="text-entity-Place-18cedc50-4c85-52d4-b2dd-111465382dcf-attr-13-name" class="er entityLabel">modified</text><rect height="22" width="22.5" y="288.5" x="114.6484375" class="er attributeBoxOdd"/><text style="dominant-baseline: middle; font-size: 10.2px;" transform="translate(119.6484375,299.5)" y="0" x="0" id="text-entity-Place-18cedc50-4c85-52d4-b2dd-111465382dcf-attr-13-comment" class="er entityLabel"/></g><g transform="translate(20,188.5 )" id="entity-Review-77c92a79-8cff-50c0-9604-f9135763cccd"><rect height="134.5" width="137.1484375" y="0" x="0" class="er entityBox"/><text style="dominant-baseline: middle; text-anchor: middle; font-size: 12px;" transform="translate(68.57421875,12)" y="0" x="0" id="text-entity-Review-77c92a79-8cff-50c0-9604-f9135763cccd" class="er entityLabel">Review</text><rect height="22.5" width="53.6640625" y="24" x="0" class="er attributeBoxOdd"/><text style="dominant-baseline: middle; font-size: 10.2px;" transform="translate(5,35.25)" y="0" x="0" id="text-entity-Review-77c92a79-8cff-50c0-9604-f9135763cccd-attr-1-type" class="er entityLabel">Int</text><rect height="22.5" width="60.984375" y="24" x="53.6640625" class="er attributeBoxOdd"/><text style="dominant-baseline: middle; font-size: 10.2px;" transform="translate(58.6640625,35.25)" y="0" x="0" id="text-entity-Review-77c92a79-8cff-50c0-9604-f9135763cccd-attr-1-name" class="er entityLabel">id</text><rect height="22.5" width="22.5" y="24" x="114.6484375" class="er attributeBoxOdd"/><text style="dominant-baseline: middle; font-size: 10.2px;" transform="translate(119.6484375,35.25)" y="0" x="0" id="text-entity-Review-77c92a79-8cff-50c0-9604-f9135763cccd-attr-1-comment" class="er entityLabel">🗝️</text><rect height="22" width="53.6640625" y="46.5" x="0" class="er attributeBoxEven"/><text style="dominant-baseline: middle; font-size: 10.2px;" transform="translate(5,57.5)" y="0" x="0" id="text-entity-Review-77c92a79-8cff-50c0-9604-f9135763cccd-attr-2-type" class="er entityLabel">String</text><rect height="22" width="60.984375" y="46.5" x="53.6640625" class="er attributeBoxEven"/><text style="dominant-baseline: middle; font-size: 10.2px;" transform="translate(58.6640625,57.5)" y="0" x="0" id="text-entity-Review-77c92a79-8cff-50c0-9604-f9135763cccd-attr-2-name" class="er entityLabel">title</text><rect height="22" width="22.5" y="46.5" x="114.6484375" class="er attributeBoxEven"/><text style="dominant-baseline: middle; font-size: 10.2px;" transform="translate(119.6484375,57.5)" y="0" x="0" id="text-entity-Review-77c92a79-8cff-50c0-9604-f9135763cccd-attr-2-comment" class="er entityLabel"/><rect height="22" width="53.6640625" y="68.5" x="0" class="er attributeBoxOdd"/><text style="dominant-baseline: middle; font-size: 10.2px;" transform="translate(5,79.5)" y="0" x="0" id="text-entity-Review-77c92a79-8cff-50c0-9604-f9135763cccd-attr-3-type" class="er entityLabel">String</text><rect height="22" width="60.984375" y="68.5" x="53.6640625" class="er attributeBoxOdd"/><text style="dominant-baseline: middle; font-size: 10.2px;" transform="translate(58.6640625,79.5)" y="0" x="0" id="text-entity-Review-77c92a79-8cff-50c0-9604-f9135763cccd-attr-3-name" class="er entityLabel">description</text><rect height="22" width="22.5" y="68.5" x="114.6484375" class="er attributeBoxOdd"/><text style="dominant-baseline: middle; font-size: 10.2px;" transform="translate(119.6484375,79.5)" y="0" x="0" id="text-entity-Review-77c92a79-8cff-50c0-9604-f9135763cccd-attr-3-comment" class="er entityLabel"/><rect height="22" width="53.6640625" y="90.5" x="0" class="er attributeBoxEven"/><text style="dominant-baseline: middle; font-size: 10.2px;" transform="translate(5,101.5)" y="0" x="0" id="text-entity-Review-77c92a79-8cff-50c0-9604-f9135763cccd-attr-4-type" class="er entityLabel">DateTime</text><rect height="22" width="60.984375" y="90.5" x="53.6640625" class="er attributeBoxEven"/><text style="dominant-baseline: middle; font-size: 10.2px;" transform="translate(58.6640625,101.5)" y="0" x="0" id="text-entity-Review-77c92a79-8cff-50c0-9604-f9135763cccd-attr-4-name" class="er entityLabel">created</text><rect height="22" width="22.5" y="90.5" x="114.6484375" class="er attributeBoxEven"/><text style="dominant-baseline: middle; font-size: 10.2px;" transform="translate(119.6484375,101.5)" y="0" x="0" id="text-entity-Review-77c92a79-8cff-50c0-9604-f9135763cccd-attr-4-comment" class="er entityLabel"/><rect height="22" width="53.6640625" y="112.5" x="0" class="er attributeBoxOdd"/><text style="dominant-baseline: middle; font-size: 10.2px;" transform="translate(5,123.5)" y="0" x="0" id="text-entity-Review-77c92a79-8cff-50c0-9604-f9135763cccd-attr-5-type" class="er entityLabel">DateTime</text><rect height="22" width="60.984375" y="112.5" x="53.6640625" class="er attributeBoxOdd"/><text style="dominant-baseline: middle; font-size: 10.2px;" transform="translate(58.6640625,123.5)" y="0" x="0" id="text-entity-Review-77c92a79-8cff-50c0-9604-f9135763cccd-attr-5-name" class="er entityLabel">modified</text><rect height="22" width="22.5" y="112.5" x="114.6484375" class="er attributeBoxOdd"/><text style="dominant-baseline: middle; font-size: 10.2px;" transform="translate(119.6484375,123.5)" y="0" x="0" id="text-entity-Review-77c92a79-8cff-50c0-9604-f9135763cccd-attr-5-comment" class="er entityLabel"/></g><rect height="14" width="40.84375" y="130.20169067382812" x="26.777088165283203" class="er relationshipLabelBox"/><text style="text-anchor: middle; dominant-baseline: middle; font-size: 12px;" y="137.20169067382812" x="47.1989631652832" id="rel1" class="er relationshipLabel">reviews</text><rect height="14" width="33.875" y="272.1759033203125" x="-112.49641418457031" class="er relationshipLabelBox"/><text style="text-anchor: middle; dominant-baseline: middle; font-size: 12px;" y="279.1759033203125" x="-95.55891418457031" id="rel2" class="er relationshipLabel">places</text><rect height="14" width="40.84375" y="365.02496337890625" x="112.47294616699219" class="er relationshipLabelBox"/><text style="text-anchor: middle; dominant-baseline: middle; font-size: 12px;" y="372.02496337890625" x="132.8948211669922" id="rel3" class="er relationshipLabel">reviews</text><rect height="14" width="22.625" y="272.1759338378906" x="261.3948669433594" class="er relationshipLabelBox"/><text style="text-anchor: middle; dominant-baseline: middle; font-size: 12px;" y="279.1759338378906" x="272.7073669433594" id="rel4" class="er relationshipLabel">user</text><rect height="14" width="22.625" y="130.20167541503906" x="118.63697814941406" class="er relationshipLabelBox"/><text style="text-anchor: middle; dominant-baseline: middle; font-size: 12px;" y="137.20167541503906" x="129.94947814941406" id="rel5" class="er relationshipLabel">user</text><rect height="14" width="29.015625" y="365.02496337890625" x="29.745803833007812" class="er relationshipLabelBox"/><text style="text-anchor: middle; dominant-baseline: middle; font-size: 12px;" y="372.02496337890625" x="44.25361633300781" id="rel6" class="er relationshipLabel">place</text></svg>